<svg width="56" height="56" fill="none" xmlns="http://www.w3.org/2000/svg"><path d="M42 16.625h-8.75V10.5a.875.875 0 00-.875-.875h-24.5a.875.875 0 000 1.75h4.375v5.25H3.5a.875.875 0 00-.875.875v7a.875.875 0 00.875.875h8.75v5.25H3.5a.875.875 0 00-.875.875v7a.875.875 0 00.875.875h8.75v5.25H7.77a.875.875 0 000 1.75h24.605a.875.875 0 00.875-.875v-6.125H42a.875.875 0 00.875-.875v-7a.875.875 0 00-.875-.875h-8.75v-5.25H42a.875.875 0 00.875-.875v-7a.875.875 0 00-.875-.875zm-28-5.25h17.5v5.25H14v-5.25zm-9.625 12.25v-5.25h17.5v5.25h-17.5zm0 14v-5.25h17.5v5.25h-17.5zm27.125 7H14v-5.25h17.5v5.25zm9.625-7h-17.5v-5.25h17.5v5.25zm-9.625-7H14v-5.25h17.5v5.25zm9.625-7h-17.5v-5.25h17.5v5.25zm-35.875 21H3.5a.875.875 0 000 1.75h1.75a.875.875 0 000-1.75zM3.5 11.375h1.82a.875.875 0 000-1.75H3.5a.875.875 0 000 1.75zm49 7a.875.875 0 00.875-.875v-7a.875.875 0 00-.875-.875h-7.875a.875.875 0 00-.875.875v7a.875.875 0 00.875.875h5.25v5.25h-5.25a.875.875 0 00-.875.875v7a.875.875 0 00.875.875h5.25v5.25h-5.25a.875.875 0 00-.875.875v7a.875.875 0 00.875.875H52.5a.875.875 0 00.875-.875v-7a.875.875 0 00-.875-.875h-.875v-5.25h.875a.875.875 0 00.875-.875v-7a.875.875 0 00-.875-.875h-.875v-5.25h.875zm-.875 26.25H45.5v-5.25h6.125v5.25zm-.875-14H45.5v-5.25h6.125v5.25h-.875zm-5.25-19.25h6.125v5.25H45.5v-5.25z" fill="#fff"/></svg>