<svg width="60" height="44" fill="none" xmlns="http://www.w3.org/2000/svg"><path d="M50.847 12.852H40.678V32.32h-.969V15.286a2.404 2.404 0 00-2.42-2.434c-.291 0-.582.049-.873.146L19.274.491A1.938 1.938 0 0017.24.15a1.959 1.959 0 00-1.21 1.8v2.531c0 1.022.483 2.044 1.258 2.628.049.05.242.195.194.487a.527.527 0 01-.388.39.417.417 0 01-.387-.098c-.097-.097-.194-.243-.194-.39h-1.937c0 .73.34 1.412.872 1.85a2.254 2.254 0 001.985.535c1.017-.194 1.792-.973 1.938-1.946.145-.876-.194-1.801-.92-2.336-.34-.244-.533-.682-.533-1.12v-2.53l.048.048 17.046 12.46a2.285 2.285 0 00-.145.827V32.32H0v3.406h1.937v-1.46h4.165A5.807 5.807 0 004.6 38.16c0 3.212 2.615 5.84 5.812 5.84 2.857 0 5.278-2.093 5.714-4.867h3.1C19.708 41.907 22.081 44 24.938 44c2.858 0 5.279-2.093 5.715-4.867h2.13v1.947h8.863v-1.947h1.791C43.922 41.907 46.295 44 49.153 44c2.857 0 5.278-2.093 5.714-4.867h1.743A3.377 3.377 0 0060 35.726v-8.711l-3.729-10.367c-.775-2.238-3.002-3.796-5.424-3.796zm3.778 4.867l3.05 8.468-6.15-1.216a1.452 1.452 0 01-1.162-1.412v-5.84h4.262zm-17.821-2.433c0-.292.194-.487.484-.487s.484.195.484.487V32.32h-.968V15.286zM14.77 34.266h5.908a5.883 5.883 0 00-1.404 2.92h-3.1c-.193-1.119-.726-2.092-1.404-2.92zm-4.358 7.787c-2.131 0-3.874-1.752-3.874-3.893 0-2.142 1.743-3.894 3.874-3.894 2.13 0 3.874 1.752 3.874 3.894 0 2.141-1.744 3.893-3.874 3.893zm14.527 0c-2.13 0-3.874-1.752-3.874-3.893 0-2.142 1.744-3.894 3.874-3.894 2.131 0 3.875 1.752 3.875 3.894 0 2.141-1.695 3.893-3.875 3.893zm14.77-2.92h-4.988v-1.947h4.988v1.947zm-6.925-3.893v1.946h-2.13a5.884 5.884 0 00-1.405-2.92h15.594a5.883 5.883 0 00-1.405 2.92h-1.791V35.24h-8.862zm16.369 6.813c-2.131 0-3.874-1.752-3.874-3.893 0-2.142 1.743-3.894 3.873-3.894 2.131 0 3.875 1.752 3.875 3.894 0 2.141-1.695 3.893-3.874 3.893zm7.506-4.867h-1.744c-.436-2.676-2.712-4.77-5.52-4.866h-6.78V14.799h8.232c.969 0 1.84.39 2.567.973h-4.988v7.739c0 1.606 1.162 3.017 2.712 3.358l6.973 1.411v7.446c0 .828-.63 1.46-1.452 1.46z" fill="#fff"/></svg>