<svg width="19" height="31" fill="none" xmlns="http://www.w3.org/2000/svg"><path d="M11.729 22.714l5.08-8.168a.466.466 0 00.04-.083 9.046 9.046 0 001.34-4.733c0-5.005-4.07-9.077-9.076-9.077C4.11.653.036 4.725.036 9.73a9.05 9.05 0 001.342 4.735c.01.025.022.05.036.073l4.898 8.196C2.51 23.271.01 24.834.01 26.731c0 2.35 3.993 4.19 9.09 4.19 5.097 0 9.09-1.84 9.09-4.19 0-1.905-2.617-3.503-6.461-4.017zM2.29 14.007A8.032 8.032 0 011.053 9.73c0-4.444 3.616-8.06 8.06-8.06 4.445 0 8.06 3.616 8.06 8.06 0 1.51-.427 2.989-1.237 4.277a.481.481 0 00-.042.085l-5.367 8.628c-.08.124-.096.152-.195.314l-1.355 2.179-6.641-11.114a.513.513 0 00-.046-.092zM9.1 29.904c-4.758 0-8.073-1.672-8.073-3.173 0-1.362 2.497-2.645 5.855-3.043l1.65 2.762a.508.508 0 00.432.247h.004c.176 0 .34-.09.432-.24l1.735-2.789c3.412.37 6.038 1.686 6.038 3.063 0 1.501-3.315 3.173-8.073 3.173z" fill="#fff"/><path d="M12.4 9.73c0-1.82-1.48-3.3-3.3-3.3-1.82 0-3.3 1.48-3.3 3.3 0 1.82 1.48 3.3 3.3 3.3 1.82 0 3.3-1.48 3.3-3.3zm-5.584 0A2.286 2.286 0 019.1 7.446a2.286 2.286 0 012.284 2.284A2.286 2.286 0 019.1 12.014 2.286 2.286 0 016.816 9.73z" fill="#fff"/></svg>