<svg width="15" height="15" fill="none" xmlns="http://www.w3.org/2000/svg"><path d="M14.932 11.956l-.074-.225c-.177-.526-.757-1.074-1.289-1.218l-1.97-.539c-.535-.145-1.297.05-1.688.441l-.714.714a7.565 7.565 0 01-5.324-5.325l.714-.713c.39-.391.586-1.152.44-1.687L4.49 1.433C4.345.899 3.796.319 3.271.145L3.046.069C2.521-.106 1.771.071 1.38.462L.313 1.53c-.19.19-.312.732-.312.734a12.6 12.6 0 003.687 9.046 12.604 12.604 0 009.018 3.688c.018 0 .576-.12.767-.31l1.066-1.066c.392-.391.568-1.14.393-1.666z" fill="#000"/></svg>