<svg width="90" height="90" fill="none" xmlns="http://www.w3.org/2000/svg"><g clip-path="url(#clip0_4_53)" fill="#E05100"><path d="M25.017 19.98a1.407 1.407 0 010 2.813h-2.224v55.313h44.414V22.793h-2.226a1.407 1.407 0 010-2.813h3.632c.777 0 1.406.63 1.406 1.407v58.127c0 .777-.63 1.407-1.406 1.407H21.387c-.777 0-1.407-.63-1.407-1.407V21.388c0-.777.63-1.407 1.407-1.407h3.63z"/><path d="M37.734 5.455a1.4 1.4 0 110 2.8h-4.043V19.98h22.617V8.256l-4.042-.003a1.4 1.4 0 110-2.8l5.305.002.144-.006c.776 0 1.406.63 1.406 1.406v14.532c0 .776-.63 1.406-1.406 1.406h-25.43c-.776 0-1.406-.63-1.406-1.406V6.855h.006a1.4 1.4 0 011.4-1.4h5.45zm5.446 30.053a1.407 1.407 0 010-2.813h18.168a1.407 1.407 0 010 2.813H43.18zm0 32.695a1.407 1.407 0 010-2.812h18.168a1.407 1.407 0 010 2.812H43.18zm0-10.898a1.407 1.407 0 010-2.813h18.168a1.407 1.407 0 010 2.813H43.18zm0-10.899a1.407 1.407 0 010-2.812h18.168a1.407 1.407 0 010 2.813H43.18zM29.121 34.034a1.401 1.401 0 012.241-1.682l.923 1.231 2.965-3.955a1.402 1.402 0 012.244 1.679l-4.072 5.428-.015.021a1.401 1.401 0 01-2.241 0l-2.045-2.722zm0 10.899a1.401 1.401 0 012.241-1.682l.923 1.23 2.965-3.954a1.405 1.405 0 011.963-.282c.618.463.744 1.345.281 1.963l-4.072 5.429-.015.02a1.401 1.401 0 01-2.241 0l-2.045-2.724zm0 10.897a1.401 1.401 0 012.241-1.681l.923 1.23 2.965-3.954a1.405 1.405 0 011.963-.282c.618.463.744 1.345.281 1.963l-4.072 5.429-.015.02a1.402 1.402 0 01-2.241 0l-2.045-2.724zm0 10.9a1.401 1.401 0 012.241-1.681l.923 1.23 2.965-3.955a1.405 1.405 0 011.963-.282c.618.463.744 1.345.281 1.963l-4.072 5.428-.015.021a1.401 1.401 0 01-2.241 0L29.12 66.73z"/><path d="M25.02 10.898a1.407 1.407 0 010 2.813h-9.082c-.607 0-1.167.252-1.57.656a2.225 2.225 0 00-.657 1.57v69.024c0 .612.249 1.172.65 1.57l.006.006c.399.401.958.65 1.57.65h58.126c.615 0 1.171-.248 1.57-.65l.006-.006c.401-.398.65-.958.65-1.57V15.938a2.21 2.21 0 00-.65-1.57l-.003-.004-.003.003a2.22 2.22 0 00-1.57-.656H64.98a1.407 1.407 0 010-2.813h9.082a5.03 5.03 0 013.56 1.48l-.004.003a5.029 5.029 0 011.483 3.556v69.024a5.02 5.02 0 01-1.48 3.553l-.006.007A5.02 5.02 0 0174.063 90H15.938c-1.38 0-2.64-.565-3.554-1.48l-.006-.005a5.019 5.019 0 01-1.48-3.554V15.938a5.03 5.03 0 011.48-3.56 5.03 5.03 0 013.56-1.48h9.082zM45 0a4.13 4.13 0 012.915 1.21l.006.006a4.124 4.124 0 011.21 2.915 4.13 4.13 0 01-1.21 2.915l-.003.003.003.003A4.11 4.11 0 0145 8.262a4.123 4.123 0 01-2.92-1.21 4.127 4.127 0 01.003-5.839l-.004-.003A4.133 4.133 0 0145 0zm.938 3.2l-.006-.007a1.32 1.32 0 00-1.864.006l-.003-.003-.002.003A1.32 1.32 0 0045 5.446c.363 0 .694-.15.931-.387l.003.003c.235-.237.381-.568.381-.934a1.308 1.308 0 00-.377-.929z"/></g><defs><clipPath id="clip0_4_53"><path fill="#fff" d="M0 0h90v90H0z"/></clipPath></defs></svg>