<svg width="90" height="90" fill="none" xmlns="http://www.w3.org/2000/svg"><g clip-path="url(#clip0_5_112)" fill="#E05100"><path d="M85.14 90a2.178 2.178 0 01-2.177-2.177c0-20.934-17.03-37.963-37.963-37.963-20.934 0-37.963 17.03-37.963 37.963a2.178 2.178 0 01-4.354 0c0-23.335 18.984-42.318 42.317-42.318s42.317 18.983 42.317 42.318A2.178 2.178 0 0185.14 90z"/><path d="M44.673 48.242c-13.3 0-24.12-10.82-24.12-24.122 0-13.3 10.82-24.12 24.12-24.12 13.301 0 24.122 10.82 24.122 24.12 0 13.301-10.82 24.122-24.122 24.122zm0-43.887c-10.897 0-19.765 8.866-19.765 19.765 0 10.9 8.868 19.767 19.765 19.767 10.9 0 19.767-8.867 19.767-19.767 0-10.899-8.866-19.765-19.767-19.765zm.678 76.104c-5.316 0-9.64-4.326-9.64-9.642s4.325-9.642 9.64-9.642c5.316 0 9.642 4.326 9.642 9.642s-4.326 9.642-9.642 9.642zm0-14.929a5.292 5.292 0 00-5.285 5.287 5.292 5.292 0 005.285 5.287 5.293 5.293 0 005.287-5.287 5.293 5.293 0 00-5.287-5.287z"/><path d="M58.211 85.294a2.17 2.17 0 01-1.54-.638l-5.93-5.93a2.176 2.176 0 113.079-3.08l5.93 5.932a2.176 2.176 0 01-1.539 3.716z"/></g><defs><clipPath id="clip0_5_112"><path fill="#fff" d="M0 0h90v90H0z"/></clipPath></defs></svg>