<svg width="102" height="102" fill="none" xmlns="http://www.w3.org/2000/svg"><path d="M52.632 40.8a1.727 1.727 0 00-1.18.517l-8.969 8.942-5.525-5.508c-1.547-1.612-4.046.877-2.431 2.42l6.742 6.726c.67.67 1.758.67 2.431 0L53.883 43.74c1.122-1.088.296-2.941-1.248-2.941h-.003zM1.7 54.4h10.2c.942 0 1.7.758 1.7 1.7s-.758 1.7-1.7 1.7H1.7c-.942 0-1.7-.758-1.7-1.7s.758-1.7 1.7-1.7zm0-13.6h10.2c.942 0 1.7.758 1.7 1.7s-.758 1.7-1.7 1.7H1.7c-.942 0-1.7-.758-1.7-1.7s.758-1.7 1.7-1.7zm0-13.6h10.2c.942 0 1.7.758 1.7 1.7s-.758 1.7-1.7 1.7H1.7c-.942 0-1.7-.758-1.7-1.7s.758-1.7 1.7-1.7zm81.6 37.4c-4.675 0-8.5 3.825-8.5 8.5s3.825 8.5 8.5 8.5 8.5-3.825 8.5-8.5-3.825-8.5-8.5-8.5zm0 3.4c2.836 0 5.1 2.264 5.1 5.1s-2.264 5.1-5.1 5.1a5.076 5.076 0 01-5.1-5.1c0-2.836 2.264-5.1 5.1-5.1zm-44.2-3.4c-4.675 0-8.5 3.825-8.5 8.5s3.825 8.5 8.5 8.5 8.5-3.825 8.5-8.5-3.825-8.5-8.5-8.5zm0 3.4c2.836 0 5.1 2.264 5.1 5.1s-2.264 5.1-5.1 5.1a5.076 5.076 0 01-5.1-5.1c0-2.836 2.264-5.1 5.1-5.1zm-17-47.6c-2.795 0-5.1 2.305-5.1 5.1v37.4c0 2.795 2.305 5.1 5.1 5.1h6.8c2.298.034 2.298-3.434 0-3.4h-6.8c-.972 0-1.7-.728-1.7-1.7V25.5c0-.973.728-1.7 1.7-1.7h44.2c.972 0 1.7.727 1.7 1.7v39.1H49.3c-2.244 0-2.203 3.434 0 3.4h23.8c2.244 0 2.224-3.4 0-3.4h-1.7V34h14.372L98.6 54.046V62.9c0 .972-.728 1.7-1.7 1.7h-3.4c-2.224 0-2.224 3.4 0 3.4h3.4c2.795 0 5.1-2.305 5.1-5.1v-9.35c0-.323-.092-.646-.265-.918l-13.6-21.25A1.702 1.702 0 0086.7 30.6H71.4v-5.1c0-2.795-2.305-5.1-5.1-5.1H22.1z" fill="#E05100"/></svg>