<svg width="103" height="103" fill="none" xmlns="http://www.w3.org/2000/svg"><path d="M18.883 17.166c-2.248 0-2.266 3.468 0 3.434h75.534c.982 0 1.716.735 1.716 1.716V66.95c0 2.266 3.434 2.266 3.434 0V22.317c0-2.823-2.328-5.15-5.15-5.15H18.883zm-6.866 6.867c-2.246 0-2.246 3.433 0 3.433H87.55c.982 0 1.717.735 1.717 1.717v44.634c0 2.283 3.467 2.266 3.433 0V29.183c0-2.822-2.328-5.15-5.15-5.15H12.017zM5.15 30.9C2.328 30.9 0 33.228 0 36.05v41.2c0 2.822 2.328 5.15 5.15 5.15h75.533c2.822 0 5.15-2.328 5.15-5.15v-41.2c0-2.822-2.328-5.15-5.15-5.15H5.15zm0 3.433h75.533c.982 0 1.717.735 1.717 1.717v41.2c0 .982-.735 1.716-1.717 1.716H5.15c-.982 0-1.717-.734-1.717-1.716v-41.2c0-.982.735-1.717 1.717-1.717zm3.433 3.434c-.947 0-1.716.769-1.716 1.716v6.867c0 2.307 3.433 2.252 3.433 0V41.2h5.15c2.307 0 2.252-3.434 0-3.434H8.583zm34.334 0c-10.41 0-18.884 8.473-18.884 18.883 0 10.41 8.474 18.883 18.884 18.883S61.8 67.06 61.8 56.65c0-10.41-8.473-18.883-18.883-18.883zm27.466 0c-2.252 0-2.307 3.433 0 3.433h5.15v5.15c0 2.252 3.434 2.307 3.434 0v-6.867c0-.947-.77-1.716-1.717-1.716h-6.867zM42.917 41.2a15.43 15.43 0 0115.45 15.45 15.43 15.43 0 01-15.45 15.45 15.43 15.43 0 01-15.45-15.45 15.43 15.43 0 0115.45-15.45zm0 3.433c-.951 0-1.717.766-1.717 1.717v2.04c-1.985.72-3.433 2.609-3.433 4.827 0 2.815 2.334 5.15 5.15 5.15.961 0 1.716.727 1.716 1.716s-.755 1.717-1.716 1.717h-3.434c-1.16-.017-1.716.851-1.716 1.717 0 .865.556 1.733 1.716 1.716H41.2v1.717c0 .95.766 1.716 1.717 1.716.95 0 1.716-.765 1.716-1.716v-2.04c1.985-.72 3.434-2.609 3.434-4.827 0-2.815-2.335-5.15-5.15-5.15-.962 0-1.717-.728-1.717-1.716 0-.99.755-1.717 1.717-1.717h3.433c1.16.017 1.717-.852 1.717-1.717 0-.865-.556-1.734-1.717-1.717h-1.717V46.35c0-.951-.765-1.717-1.716-1.717zM8.583 65.24c-.858-.007-1.716.556-1.716 1.71v6.867c0 .947.769 1.716 1.716 1.716h6.867c2.252 0 2.307-3.433 0-3.433H10.3v-5.15c0-1.126-.858-1.703-1.717-1.71zm68.667 0c-.858.007-1.717.584-1.717 1.71v5.15h-5.15c-2.307 0-2.252 3.433 0 3.433h6.867c.948 0 1.717-.769 1.717-1.716V66.95c0-1.154-.859-1.717-1.717-1.71z" fill="#E05100"/></svg>