<svg width="97" height="97" fill="none" xmlns="http://www.w3.org/2000/svg"><path d="M33.097 48.253l-2.013 14.514a2.982 2.982 0 004.256 3.092l13.14-6.399 13.181 6.4a2.983 2.983 0 004.255-3.095l-2.024-14.472 10.157-10.558a2.983 2.983 0 00-1.625-5.004l-14.39-2.546-6.904-12.924a2.982 2.982 0 00-5.26 0L39 30.16l-14.424 2.57a2.982 2.982 0 00-1.625 5.005l10.146 10.518zm6.44-15.11a2.97 2.97 0 002.103-1.531l6.816-12.926 1.338-.712-1.337.713 6.903 12.924a2.968 2.968 0 002.107 1.532l14.398 2.49L61.71 46.19a2.964 2.964 0 00-.807 2.48l2.081 14.462-13.18-6.399a2.961 2.961 0 00-2.605 0l-13.112 6.449L36.1 48.665a2.97 2.97 0 00-.806-2.474L25.109 35.713l14.427-2.57z" fill="#E05100"/><path d="M85.33 49.71a37.362 37.362 0 001.06-8.788 37.89 37.89 0 10-75.78 0 37.3 37.3 0 001.061 8.788 16.637 16.637 0 0017.126 27.941v14.802a1.516 1.516 0 001.764 1.495l17.939-2.99 17.939 2.99a1.515 1.515 0 001.764-1.495V77.651a16.64 16.64 0 0017.127-27.94zM48.5 6.063a34.898 34.898 0 0134.86 34.86 34.29 34.29 0 01-1.177 8.937 34.985 34.985 0 01-13.364 19.378 34.344 34.344 0 01-2.89 1.867l-.002.002-.01.007c-.74.437-1.52.829-2.183 1.154a34.779 34.779 0 01-30.465.002 31.894 31.894 0 01-2.198-1.165 34.328 34.328 0 01-2.897-1.872A34.982 34.982 0 0114.816 49.85a34.215 34.215 0 01-1.175-8.927A34.898 34.898 0 0148.5 6.062zm-25.766 69.72A13.639 13.639 0 0112.6 53.011c.032.094.074.183.106.276.321.93.67 1.85 1.063 2.749.034.076.071.151.105.227.398.896.83 1.774 1.297 2.636.041.076.079.154.121.23.476.864.991 1.706 1.532 2.53.084.128.165.257.25.383.54.801 1.109 1.58 1.708 2.338.097.123.195.244.293.365.618.763 1.26 1.506 1.935 2.22.072.076.148.15.221.227a37.884 37.884 0 004.622 4.084c.098.073.193.149.292.221a35.877 35.877 0 002.425 1.63c.077.048.149.105.227.153v1.08a13.664 13.664 0 01-6.063 1.42zm9.094-.516v-.329l.106.053a37.345 37.345 0 0015.05 3.78v9.368l-15.156 2.526V75.266zm33.344 15.398l-15.156-2.526V78.77a37.337 37.337 0 0015.156-3.832v15.726zm9.094-14.883c-2.104 0-4.178-.487-6.063-1.42v-1.08c.075-.046.143-.1.217-.146.83-.514 1.64-1.058 2.428-1.632.106-.077.208-.158.313-.237a37.855 37.855 0 002.376-1.921l.012-.012a38.227 38.227 0 002.206-2.127c.08-.083.162-.163.241-.246.672-.711 1.31-1.45 1.925-2.209.1-.123.2-.246.298-.37.6-.76 1.17-1.542 1.712-2.344.08-.12.158-.242.238-.364a38.113 38.113 0 001.547-2.556c.033-.06.062-.12.094-.179.483-.89.93-1.8 1.341-2.728.023-.051.048-.1.07-.152.402-.918.76-1.857 1.086-2.807.028-.08.065-.157.093-.238A13.64 13.64 0 0174.266 75.78z" fill="#E05100"/></svg>